' Generated by UML Generator
' Encoded: dLTjRzis4FxkNo7qazp4MPmrws1aHkt4RWpanP3iRDWm5BHqThZ8f41ISTsY_UqxKfP4IdOJD05iyUwvE_9U7ieVf292PUka9PyeIuaWQozAY9G3fGHTP0ec4MSX_GBUQUkHnk15L4G9j5e6vGtIz9Ap9LrvNrlV2k6O9d35DopX94Qj4Zn9G232ypeIn3EDeEUDLJgdORxIYWv-7EstzFSQjRL1l0DhGn_MX2OzByITizMnjqGP8ske909aofb4oRLIgVQJW0fsmdRFU-OqheunbyMc7STQaA7ATgrbATfik8XjcJcKzkEtowVQBkkkZhsw8sCgGKrtShy1sEqyXusqVpUA2vZl8lhrq1PiPOLhMoVIYZn0NLfwTHIAvy-MjCplLF3_859OquSkzb528w8ePoRbHr-nCHMDldaOZFb4h6JXu9z_hKfHfa0iIGIcMW6aN5B5nJPtigGi7cwBdTtG9_1hvxsXKbreGB-9Vnbxpw223rXSfYnZLZatbWyDTgnDCctJMdligRNnKGsRIYyJ2anT4nQNOnRbmnFow0aKsfflhH2SgoigwerBdq6F0sY5-QuiDe8gBPyYNlrf5jMyreBxqWc84-U6CwqiCkPNhTPvDAPu_kUcDCHQ-lKvRg02KAz0wVBvCHLt-q5HmgNUXKw5t-02ctZo39SD6ew2Xr5GUFJ-yDvqpzwVdE9_zuq3dDu7ivw7IKJCMVUiwoZdeUk3n6lAQlQ3C7J3_Fhkt8M4i_jWy77qQJgONTjGYNaaA_ZbJL6vJYI0ACYBfuyxdatpHSwg83MZZZxhdBr0gsYyu3m1mhHfbXPqZBoQhSdYDRoCDq-cS05atVCcrG9TN_9rYYIj_OmpbGcu6ER1-dNw7mk-nZAz76qX-0P7g8XtdoaxeCM0StCMCDvbWr5pEh0WLxFxVjKnjzjnViKK8_cZFZXgLF1g4kmfeAaVbK7662hAn2D2YGoA-xMOtkOicw4rLtwkyUsRGV6q9dMkGgVxCuTjUpNsTQw-dPt_OnF332IEjNJ6huO6deFS1aluYh9z5-aXfinhEKWIlPBwR0CXoDPbSmkXhuaxSpsoW-HlmOVRLu1__gA80RiV9WhM1pEoktnVy5NMyfgluO729Y_aCc_IlQzaAq4ncn_niz7ds74CNHXTtwzfJqoWTj4dvM7odYZY-uT2crPOm98B6EdhtOTdvAMUDwn48osno7kHqIIUJvgDUwExfJpjKRaqoIoZMstQjYQOsAR5ohSG0QomqY0gb2rvJOoRB-z_dokQo1f73EVZyIZu54x-7fLKSVwRzzRhdfwzSv2tWx-GB2vd3lRyLF-LAI_14R8flWHBdpA7Q8yzdgc3L5YQn_0J3igptl4uPu_l-F83dyrUzIfwnE89G8Ut9BqORXKS6spHPDT4FcfDtxn4cnDzrtg_ScCoUk1dnzjEn-tisflYoKa_Rr2RvBHHZTDiTMbJ3bCZYgCnsAeN2_C2w_HHNMdInj69VcXz01RZpxN_0G
' URL: http://www.plantuml.com/plantuml/uml/dLTjRzis4FxkNo7qazp4MPmrws1aHkt4RWpanP3iRDWm5BHqThZ8f41ISTsY_UqxKfP4IdOJD05iyUwvE_9U7ieVf292PUka9PyeIuaWQozAY9G3fGHTP0ec4MSX_GBUQUkHnk15L4G9j5e6vGtIz9Ap9LrvNrlV2k6O9d35DopX94Qj4Zn9G232ypeIn3EDeEUDLJgdORxIYWv-7EstzFSQjRL1l0DhGn_MX2OzByITizMnjqGP8ske909aofb4oRLIgVQJW0fsmdRFU-OqheunbyMc7STQaA7ATgrbATfik8XjcJcKzkEtowVQBkkkZhsw8sCgGKrtShy1sEqyXusqVpUA2vZl8lhrq1PiPOLhMoVIYZn0NLfwTHIAvy-MjCplLF3_859OquSkzb528w8ePoRbHr-nCHMDldaOZFb4h6JXu9z_hKfHfa0iIGIcMW6aN5B5nJPtigGi7cwBdTtG9_1hvxsXKbreGB-9Vnbxpw223rXSfYnZLZatbWyDTgnDCctJMdligRNnKGsRIYyJ2anT4nQNOnRbmnFow0aKsfflhH2SgoigwerBdq6F0sY5-QuiDe8gBPyYNlrf5jMyreBxqWc84-U6CwqiCkPNhTPvDAPu_kUcDCHQ-lKvRg02KAz0wVBvCHLt-q5HmgNUXKw5t-02ctZo39SD6ew2Xr5GUFJ-yDvqpzwVdE9_zuq3dDu7ivw7IKJCMVUiwoZdeUk3n6lAQlQ3C7J3_Fhkt8M4i_jWy77qQJgONTjGYNaaA_ZbJL6vJYI0ACYBfuyxdatpHSwg83MZZZxhdBr0gsYyu3m1mhHfbXPqZBoQhSdYDRoCDq-cS05atVCcrG9TN_9rYYIj_OmpbGcu6ER1-dNw7mk-nZAz76qX-0P7g8XtdoaxeCM0StCMCDvbWr5pEh0WLxFxVjKnjzjnViKK8_cZFZXgLF1g4kmfeAaVbK7662hAn2D2YGoA-xMOtkOicw4rLtwkyUsRGV6q9dMkGgVxCuTjUpNsTQw-dPt_OnF332IEjNJ6huO6deFS1aluYh9z5-aXfinhEKWIlPBwR0CXoDPbSmkXhuaxSpsoW-HlmOVRLu1__gA80RiV9WhM1pEoktnVy5NMyfgluO729Y_aCc_IlQzaAq4ncn_niz7ds74CNHXTtwzfJqoWTj4dvM7odYZY-uT2crPOm98B6EdhtOTdvAMUDwn48osno7kHqIIUJvgDUwExfJpjKRaqoIoZMstQjYQOsAR5ohSG0QomqY0gb2rvJOoRB-z_dokQo1f73EVZyIZu54x-7fLKSVwRzzRhdfwzSv2tWx-GB2vd3lRyLF-LAI_14R8flWHBdpA7Q8yzdgc3L5YQn_0J3igptl4uPu_l-F83dyrUzIfwnE89G8Ut9BqORXKS6spHPDT4FcfDtxn4cnDzrtg_ScCoUk1dnzjEn-tisflYoKa_Rr2RvBHHZTDiTMbJ3bCZYgCnsAeN2_C2w_HHNMdInj69VcXz01RZpxN_0G
' Generated on: 2026-04-12T20:39:29.951110800

@startuml
skinparam classAttributeIconSize 0
hide circle

class AppConfig {
}

class FileDownloadController {
  -service: FtpUiService
  --
  +FileDownloadController(service: FtpUiService)
  +downloadFile(email: String, filename: String, response: HttpServletResponse): void
}

class User {
  -email: String
  -username: String
  -password: String
  --
  +User()
  +User(email: String, username: String, password: String)
  +setPassword(password: String): void
  +setEmail(email: String): void
  +setUsername(username: String): void
  +getPassword(): String
  +getEmail(): String
  +getUsername(): String
  +toString(): String
}

class ProjectFtpV1Application {
  +{static} main(args: String[]): void
}

interface UserRepository {
  +findByUsernameLike(name: String): List<User>
  +findByUsername(name: String): List<User>
  +findOneByUsernameAndPassword(un: String, pw: String): User
  +findOneByEmailAndPassword(email: String, password: String): User
}

class FtpClientHandler {
  -controlSocket: Socket
  -rootDir: String
  -passiveServer: ServerSocket
  -writer: PrintWriter
  --
  +FtpClientHandler(socket: Socket, rootDir: String)
  +run(): void
  -handlePasv(): void
  -handleStor(filename: String): void
  -handleRetr(filename: String): void
  -handleList(dirName: String): void
  -closePassive(): void
}

class FtpUiService {
  -{static} SERVER: String = "127.0.0.1"
  -{static} PORT: int = 2121
  -{static} USER: String = "admin"
  -{static} PASS: String = "12345"
  -{static} STORAGE_PATH: String = "storage/"
  --
  -createClient(): FTPClient
  +doesFileExist(email: String, filename: String): boolean
  +uploadFileResumable(email: String, filename: String, inputStream: InputStream): CompletableFuture<Boolean>
  +downloadFileFromFtp(email: String, filename: String, browserStream: OutputStream): void
  +getUploadedFiles(email: String): List<UploadedFileDTO>
}

class MyFtpServer {
  -{static} PORT: int = 2121
  +{static} STORAGE_DIR: String = "storage"
  -isRunning: boolean = true
  -serverSocket: ServerSocket
  --
  +startServer(): void
  +stopServer(): void
}

class UserService {
  -userRepository: UserRepository
  --
  +UserService(userRepository: UserRepository)
  +addUserToDB(user: User): boolean
  +loginUser(email: String, password: String): User
  +getAllUsers(): ArrayList<User>
  +getAllUsersLikeName(un: String): List<User>
  +getAllUsersByName(un: String): List<User>
  +getOneByUsernameAndPassword(un: String, pw: String): User
  +deleteItem(user: User): boolean
  +getUser(un: String, pw: String): User
}

class HomeView {
  -ftpService: FtpUiService
  -grid: Grid<UploadedFileDTO> = new Grid<>(UploadedFileDTO.class)
  -user: User
  --
  +HomeView(ftpService: FtpUiService)
  +beforeEnter(event: BeforeEnterEvent): void
  -buildUI(): void
}

class LoginView {
  +LoginView(userService: UserService)
}

class MainView {
  +MainView()
}

class RegisterView {
  +RegisterView(userService: UserService)
}

class Lz78Utils {
  -{static} BUFFER_SIZE: int = 256 * 1024
  -{static} MAX_DICT_SIZE: int = 500000
  --
  +{static} compress(in: InputStream, out: OutputStream): void
  +{static} decompress(in: InputStream, out: OutputStream): void
}

class Node {
  ~index: int
  ~children: Map<Byte, Node> = new HashMap<>()
  --
  ~Node(index: int)
}

FileDownloadController *-- FtpUiService
UserRepository ..> User
UserService *-- UserRepository
UserService ..> User
HomeView *-- FtpUiService
HomeView *-- User
LoginView ..> UserService
RegisterView ..> UserService
Node o-- Node
@enduml